<svg enable-background="new 0 0 128 128" viewBox="0 0 128 128" xmlns="http://www.w3.org/2000/svg"><g clip-rule="evenodd"><path d="m0 0h128v128h-128z" fill="none"/><path d="m117 73.204-13.76-9.204 13.76-9.204zm-47.5 39.016v-25.652l23.848-15.948 19.248 12.872zm-5.5-35.208-19.452-13.012 19.452-13.012 19.456 13.012zm-5.5 35.208-43.096-28.728 19.252-12.872 23.844 15.948zm-47.5-57.424 13.764 9.204-13.764 9.204zm47.5-39.016v25.652l-23.844 15.952-19.252-12.876zm11 0 43.096 28.728-19.248 12.876-23.848-15.952zm58.452 28.004c-.012-.084-.032-.16-.044-.24-.028-.156-.056-.312-.096-.46-.024-.092-.06-.18-.088-.268-.044-.136-.088-.268-.14-.4-.036-.092-.08-.184-.124-.268-.056-.128-.116-.248-.188-.364-.048-.088-.104-.172-.156-.256-.072-.116-.148-.228-.232-.336-.06-.08-.124-.16-.188-.236-.088-.104-.18-.204-.276-.3-.072-.072-.14-.148-.216-.212-.104-.092-.208-.18-.312-.264-.084-.064-.164-.128-.248-.188-.032-.02-.06-.048-.092-.068l-58.5-39c-1.848-1.232-4.252-1.232-6.104 0l-58.496 39c-.032.02-.06.048-.092.068-.088.06-.168.124-.248.188-.108.084-.212.172-.312.264-.076.064-.148.14-.22.212-.096.096-.188.196-.272.3-.068.076-.132.156-.192.236-.08.108-.156.22-.228.336-.056.084-.108.168-.16.256-.068.116-.128.236-.188.364-.04.084-.084.176-.12.268-.056.132-.1.264-.144.4-.028.088-.06.176-.084.268-.04.148-.068.304-.096.46-.016.08-.036.156-.044.24-.032.232-.052.472-.052.716v39c0 .24.02.48.052.72.008.076.028.156.044.236.028.156.056.308.096.46.024.092.056.18.084.268.044.132.088.268.144.404.036.088.08.176.12.264.06.124.12.244.188.368.052.084.104.168.16.252.072.116.148.224.228.332.06.084.124.164.192.24.084.1.176.204.272.296.072.076.144.148.22.216.1.092.204.18.312.264.08.064.16.128.248.188.032.02.06.048.092.068l58.496 39c.924.616 1.988.924 3.052.924s2.128-.308 3.052-.924l58.5-39c.032-.02.06-.048.092-.068.084-.06.164-.124.248-.188.104-.084.208-.172.312-.264.076-.068.144-.14.216-.216.096-.092.188-.196.276-.296.064-.076.128-.156.188-.24.084-.108.16-.216.232-.332.052-.084.108-.168.156-.252.072-.124.132-.244.188-.368.044-.088.088-.176.124-.264.052-.136.096-.272.14-.404.028-.088.064-.176.088-.268.04-.152.068-.304.096-.46.012-.08.032-.16.044-.236.032-.24.048-.48.048-.72v-39c0-.244-.016-.484-.048-.716z" fill="#0b0b0a" fill-rule="evenodd"/></g></svg>