<svg height="800" viewBox="-143 145 512 512" width="800" xmlns="http://www.w3.org/2000/svg"><path d="m113 145c-141.4 0-256 114.6-256 256s114.6 256 256 256 256-114.6 256-256-114.6-256-256-256zm159.8 415.7c-20.8 20.8-44.9 37.1-71.8 48.4-27.8 11.8-57.4 17.7-88 17.7-30.5 0-60.1-6-88-17.7-26.9-11.4-51.1-27.7-71.8-48.4-20.8-20.8-37.1-44.9-48.4-71.8-11.8-27.8-17.8-57.4-17.8-87.9s6-60.1 17.7-88c11.4-26.9 27.7-51.1 48.4-71.8 20.9-20.8 45-37.1 71.9-48.5 27.9-11.7 57.5-17.7 88-17.7s60.1 6 88 17.7c26.9 11.4 51.1 27.7 71.8 48.4 20.8 20.8 37.1 44.9 48.4 71.8 11.8 27.8 17.7 57.4 17.7 88 0 30.5-6 60.1-17.7 88-11.4 26.9-27.7 51.1-48.4 71.8z"/><path d="m224.5 351.2c.9-20.1-1.8-39.6-8.6-58.6-.9-2.4-2-3.3-4.5-2.6-5.6 1.7-11.4 3-16.9 5-15.2 5.5-29.1 13.5-42.6 22.2-1.4.9-3.5 1.5-5.2 1.2-22.1-3.9-44.3-3.7-66.5-.3-2.2.3-5-.2-6.8-1.3-15.7-10.2-31.7-20.2-50-25-15.1-4-12-4.8-16.3 8.9-5.1 16.4-7.1 33.4-6 50.6.1 1.2-.8 2.7-1.6 3.8-6.6 7.9-11.7 16.6-14.8 26.4-6 19-4.8 38.2-1 57.3 7.5 37.5 32.8 63.8 70.2 70.3 19.3 3.4 39.2 3.7 57.3 5.2 20.2-1.5 38.9-1.6 57.1-4.5 31.8-5.1 55.8-22 67.8-52.7 4.2-10.7 6.5-22.4 7.9-33.8 3.1-25.2-1.2-48.8-18.4-68.7-.6-.8-1.1-2.2-1.1-3.4zm-16.4 107.9c-3.3 15.6-12.4 26.3-27.6 31.8-14.7 5.4-29.9 7.6-45.4 8.6-7.5.5-15 .1-22.5.1-20.2.4-40.4-.4-59.9-6.2-24.5-7.3-35.5-21.9-36.2-47.5-.3-9.1.7-17.9 5-26.1 8.5-16.5 23.2-22.3 40.6-22.6 9.5-.1 19.1.7 28.7 1.6 20.1 1.8 40-.1 60-1.2 8.8-.5 17.8-.7 26.4.8 18.5 3.2 32.5 21.6 32.8 42.3 0 6.1-.7 12.4-1.9 18.4z"/><path d="m56.1 424.8c-5.5 5.7-7.4 12.9-7.7 19.3 0 9.6 2.8 17.3 7.7 22.3 6.8 6.9 16.1 6.7 22.6-.3 9.8-10.6 9.7-30.5 0-41-6.5-7.1-16-7.2-22.6-.3z"/><path d="m148.2 424c-11.2 10.3-11.2 33 0 43.2 6.5 5.9 15.3 5.6 21.4-.7 5.6-5.8 7.6-13.1 7.8-21-.2-7.9-2.2-15.1-7.9-20.9-6.1-6.3-14.9-6.5-21.3-.6z"/></svg>