<?xml version="1.0" standalone="no"?>
<!DOCTYPE svg PUBLIC "-//W3C//DTD SVG 20010904//EN"
 "http://www.w3.org/TR/2001/REC-SVG-20010904/DTD/svg10.dtd">
<svg version="1.0" xmlns="http://www.w3.org/2000/svg"
 width="512.000000pt" height="512.000000pt" viewBox="0 0 512.000000 512.000000"
 preserveAspectRatio="xMidYMid meet">
<metadata>
Created by potrace 1.14, written by Peter Selinger 2001-2017
</metadata>
<g transform="translate(0.000000,512.000000) scale(0.100000,-0.100000)"
fill="#000000" stroke="none">
<path d="M0 2560 l0 -2560 2560 0 2560 0 0 2560 0 2560 -2560 0 -2560 0 0
-2560z m2915 2090 c374 -65 727 -221 998 -442 419 -342 682 -794 779 -1337 32
-181 32 -501 0 -682 -85 -480 -290 -872 -628 -1200 -321 -312 -693 -499 -1153
-581 -181 -32 -501 -32 -682 0 -380 68 -730 223 -1002 444 -419 342 -682 794
-779 1337 -32 181 -32 501 0 682 97 543 360 995 779 1337 301 246 714 415
1124 461 134 15 425 6 564 -19z"/>
<path d="M1452 3663 l-160 -167 298 -306 c164 -168 375 -381 469 -475 l171
-170 -471 -471 c-259 -259 -470 -475 -468 -480 2 -5 78 -82 169 -171 l165
-163 475 469 475 469 472 -471 473 -472 170 170 170 170 -472 472 -473 473
475 475 475 475 -170 170 -170 170 -472 -472 -473 -473 -473 473 c-259 259
-477 472 -484 472 -6 0 -83 -75 -171 -167z"/>
</g>
</svg>
